<svg width="671" height="107" viewBox="0 0 671 107" fill="none" xmlns="http://www.w3.org/2000/svg">
<path d="M407.656 0.25L426.245 38.502L407.656 76.709H338.716V106.75H315.799V0.25H407.656ZM338.716 53.7031H393.428L393.496 53.5615L400.709 38.6113L400.761 38.5029L400.709 38.3945L393.496 23.3975L393.428 23.2559H338.716V53.7031Z" stroke="black" stroke-width="0.5"/>
<path d="M297.782 0.25V23.2559H229.322L229.251 23.3213L213.538 37.6133L213.456 37.6875V41.9502H275.021V64.9561H213.456V69.1953L213.538 69.2695L229.251 83.5615L229.322 83.626H297.782V106.633H220.478L190.539 79.3867V27.4941L220.477 0.25H297.782Z" stroke="black" stroke-width="0.5"/>
<path d="M545.982 0.25V23.2559H479.841L479.77 23.3213L464.057 37.6133L463.975 37.6875V41.9502H544.835V79.3867L514.896 106.633H439.934V83.626H506.052L506.123 83.5615L521.836 69.2695L521.918 69.1953V64.9561H441.058V27.4941L471.019 0.25H545.982Z" stroke="black" stroke-width="0.5"/>
<path d="M670.75 0.25V23.2559H604.632L604.561 23.3213L588.848 37.6133L588.766 37.6875V41.9502H669.603V79.3867L639.664 106.633H564.701V83.626H630.819L630.891 83.5615L646.604 69.2695L646.686 69.1953V64.9561H565.849V27.4941L595.786 0.25H670.75Z" stroke="black" stroke-width="0.5"/>
<path d="M114.93 0.25L147.443 29.8457V49.6631L126.316 39.0947L106.881 21.417L106.81 21.3525H40.8838L40.8125 21.417L21.377 39.0938L0.25 49.6631V29.8447L32.7861 0.25L91.0928 0.296875H91.248L91.2715 0.25H114.93Z" stroke="black" stroke-width="0.5"/>
<path d="M147.443 77.1299L114.929 106.749L99.8291 106.703L99.4238 106.701L99.4482 106.75H32.7871L0.25 77.1309V57.3125L21.3789 67.8828L40.8115 85.582L40.8838 85.6475H106.81L106.881 85.582L126.314 67.8818L147.443 57.3125V77.1299Z" stroke="black" stroke-width="0.5"/>
<path d="M104.694 44.6533L109.771 53.5L104.694 62.3467H42.9971L37.9189 53.5L42.9971 44.6533H104.694Z" stroke="black" stroke-width="0.5"/>
</svg>
